<svg xmlns="http://www.w3.org/2000/svg" viewBox="0 0 800 480">
  <defs>
    <linearGradient id="bg" x1="0%" y1="0%" x2="0%" y2="100%">
      <stop offset="0%" stop-color="#020510"/>
      <stop offset="60%" stop-color="#0a1530"/>
      <stop offset="100%" stop-color="#1a0820"/>
    </linearGradient>
    <linearGradient id="nGlow" x1="0%" y1="0%" x2="0%" y2="100%">
      <stop offset="0%" stop-color="#00d4ff" stop-opacity="0.6"/>
      <stop offset="100%" stop-color="#00d4ff" stop-opacity="0"/>
    </linearGradient>
  </defs>
  <rect width="800" height="480" fill="url(#bg)"/>
  <rect x="0" y="300" width="800" height="180" fill="#0d1a30"/>
  <g fill="#132040" opacity="0.9">
    <rect x="20" y="240" width="60" height="240"/><rect x="70" y="260" width="50" height="220"/>
    <rect x="140" y="220" width="80" height="260"/><rect x="210" y="250" width="40" height="230"/>
    <rect x="280" y="200" width="70" height="280"/><rect x="340" y="230" width="60" height="250"/>
    <rect x="420" y="210" width="90" height="270"/><rect x="500" y="240" width="50" height="240"/>
    <rect x="560" y="220" width="80" height="260"/><rect x="630" y="260" width="60" height="220"/>
    <rect x="680" y="230" width="70" height="250"/><rect x="740" y="250" width="60" height="230"/>
  </g>
  <!-- Neon windows -->
  <g fill="#00d4ff" opacity="0.3">
    <rect x="150" y="235" width="8" height="6" rx="1"/><rect x="170" y="250" width="8" height="6" rx="1"/><rect x="150" y="270" width="8" height="6" rx="1"/>
    <rect x="290" y="215" width="8" height="6" rx="1"/><rect x="310" y="230" width="8" height="6" rx="1"/><rect x="290" y="250" width="8" height="6" rx="1"/>
    <rect x="430" y="225" width="8" height="6" rx="1"/><rect x="460" y="240" width="8" height="6" rx="1"/><rect x="430" y="260" width="8" height="6" rx="1"/>
    <rect x="570" y="235" width="8" height="6" rx="1"/><rect x="600" y="250" width="8" height="6" rx="1"/><rect x="570" y="270" width="8" height="6" rx="1"/>
  </g>
  <!-- Moon/Sun glow -->
  <circle cx="400" cy="160" r="60" fill="#9d4edd" opacity="0.15"/>
  <circle cx="400" cy="160" r="30" fill="#00d4ff" opacity="0.1"/>
  <!-- Stars -->
  <g fill="#fff" opacity="0.5">
    <circle cx="100" cy="60" r="2"/><circle cx="250" cy="40" r="1.5"/><circle cx="400" cy="30" r="2.5"/>
    <circle cx="550" cy="50" r="1"/><circle cx="700" cy="70" r="2"/><circle cx="160" cy="120" r="1.5"/>
    <circle cx="640" cy="100" r="1.5"/><circle cx="350" cy="90" r="1"/><circle cx="480" cy="110" r="2"/>
  </g>
  <!-- Neon road -->
  <rect x="0" y="420" width="800" height="60" fill="#050810"/>
  <line x1="0" y1="450" x2="800" y2="450" stroke="#00d4ff" stroke-width="2" stroke-dasharray="30,20" opacity="0.4"/>
  <text x="400" y="470" text-anchor="middle" font-family="Segoe UI, sans-serif" font-size="14" fill="#00d4ff" opacity="0.5" letter-spacing="8">NEON CITYSCAPE · AI GENERATED</text>
</svg>